# xmcd
# Track frame offsets:
# 150
# 12760
# 27463
# 44180
# 60136
# 77323
# 89213
# 107426
# 119733
#
# Disc length: 1811 seconds
# Revision: 0
# Processed by: cddbd v1.5.2PL0 Copyright (c) Steve Scherf et al.
# Submitted via: VisiTrax 2.9.10.228 - For more info visit www.synapsa.com
#
DISCID=6e071109
DTITLE=Various Artist - New Country 36
DYEAR=2008
DGENRE=Country
TTITLE0=Floyd Flowers - Back on the radio again
TTITLE1=Shilo - Dodgin' a Ford in my chevrolet
TTITLE2=April Taylor - I wanna live like that
TTITLE3=Carey Shearer - If you ever let your heart go
TTITLE4=Kim McAbee - It ain't workin' on me
TTITLE5=Vivian Ashton - Make her money
TTITLE6=James Younger - Victoria's secret
TTITLE7=Debbie West - You're the only bad thing that's happened for me for goo
TTITLE7=d
TTITLE8=Beer Joint Bartones - Getting up to nothing
EXTD=
EXTT0=
EXTT1=
EXTT2=
EXTT3=
EXTT4=
EXTT5=
EXTT6=
EXTT7=
EXTT8=
PLAYORDER=
